<svg width="300" height="50" viewBox="0 0 300 50" fill="none" xmlns="http://www.w3.org/2000/svg">
<g clip-path="url(#clip0)">
<path d="M41.902 42.826L2.346 40.216H42.366L41.902 42.826ZM42.888 37.2L18.296 34.59H43.352L42.888 37.2ZM49.094 14.928L24.502 12.318H49.268L49.094 14.928ZM49.5 9.36L24.966 6.75H49.674L49.5 9.36ZM28.678 23.454H53.734L51.53 25.89L28.678 23.454ZM23.632 29.022H48.688L46.484 31.458L23.632 29.022ZM33.666 17.886H58.722L56.518 20.322L33.666 17.886ZM73.396 43H43.7L44.976 35.75L62.434 16.378L62.318 16.03H50.776L51.414 6.75H79.544L78.268 14L60.926 33.372L60.984 33.72H75.02L73.396 43ZM90.2187 43L96.5987 6.75H107.619L101.239 43H90.2187ZM88.4787 42.826L63.8867 40.216H88.9427L88.4787 42.826ZM90.4507 31.632L65.8587 29.022H90.9147L90.4507 31.632ZM91.4367 26.064L66.8447 23.454H91.9007L91.4367 26.064ZM92.4227 20.496L67.8307 17.886H92.8867L92.4227 20.496ZM93.4087 14.928L68.8167 12.318H93.8147L93.4087 14.928ZM89.4647 37.2L64.8727 34.59H89.9287L89.4647 37.2ZM94.3367 9.36L69.8027 6.75H94.8007L94.3367 9.36ZM114.515 42.826L74.9593 40.216H114.979L114.515 42.826ZM115.501 37.2L90.9093 34.59H115.965L115.501 37.2ZM121.707 14.928L97.1153 12.318H121.881L121.707 14.928ZM122.113 9.36L97.5793 6.75H122.287L122.113 9.36ZM101.291 23.454H126.347L124.143 25.89L101.291 23.454ZM96.2453 29.022H121.301L119.097 31.458L96.2453 29.022ZM106.279 17.886H131.335L129.131 20.322L106.279 17.886ZM146.009 43H116.313L117.589 35.75L135.047 16.378L134.931 16.03H123.389L124.027 6.75H152.157L150.881 14L133.539 33.372L133.597 33.72H147.633L146.009 43ZM178.55 33.952C180.058 33.952 181.179 33.778 181.914 33.43C182.649 33.0433 183.132 32.1927 183.364 30.878L186.032 15.798H181.392C179.923 15.798 178.821 15.9913 178.086 16.378C177.351 16.726 176.868 17.5573 176.636 18.872L173.968 33.952H178.55ZM183.306 5.88C188.217 5.88 191.716 6.84666 193.804 8.78C195.892 10.6747 196.936 13.6133 196.936 17.596C196.936 21.5787 196.298 25.7547 195.022 30.124C193.785 34.4547 191.793 37.838 189.048 40.274C186.341 42.6713 182.359 43.87 177.1 43.87C171.88 43.87 168.226 42.9227 166.138 41.028C164.05 39.0947 163.006 36.1367 163.006 32.154C163.006 30.2593 163.277 27.7653 163.818 24.672C164.359 21.54 165.075 18.8527 165.964 16.61C166.853 14.3287 168.052 12.3567 169.56 10.694C172.46 7.48466 177.042 5.88 183.306 5.88ZM162.136 24.614C162.059 24.9233 161.981 25.3487 161.904 25.89L139.11 23.454H162.31L162.136 24.614ZM161.498 29.022C161.382 29.9113 161.324 30.7233 161.324 31.458L138.472 29.022H161.498ZM163.702 17.886L163.006 20.264L140.502 17.886H163.702ZM161.382 34.59C161.537 35.6727 161.672 36.4847 161.788 37.026L139.226 34.59H161.382ZM166.08 12.318C165.539 13.3233 165.152 14.0967 164.92 14.638L143.228 12.318H166.08ZM163.122 40.216C163.625 41.1053 164.205 41.8207 164.862 42.362L144.794 40.216H163.122ZM171.59 6.75C170.469 7.446 169.599 8.084 168.98 8.664L151.232 6.75H171.59ZM224.279 28.326L224.337 27.224H223.873L221.147 43H210.127L216.507 6.75H227.527L224.917 21.54H225.381C225.69 20.3027 226.038 19.3747 226.425 18.756L233.733 6.75H245.623L234.255 24.556L239.533 43H227.643L224.453 30.008C224.337 29.6213 224.279 29.0607 224.279 28.326ZM208.387 42.826L183.795 40.216H208.851L208.387 42.826ZM210.359 31.632L185.767 29.022H210.823L210.359 31.632ZM211.345 26.064L186.753 23.454H211.809L211.345 26.064ZM212.331 20.496L187.739 17.886H212.795L212.331 20.496ZM213.317 14.928L188.725 12.318H213.723L213.317 14.928ZM209.373 37.2L184.781 34.59H209.837L209.373 37.2ZM214.245 9.36L189.711 6.75H214.709L214.245 9.36ZM256.845 20.496L232.253 17.886H257.309L256.845 20.496ZM255.859 26.064L231.325 23.454H256.323L255.859 26.064ZM258.817 9.36L234.283 6.75H259.281L258.817 9.36ZM233.297 12.318H258.295L257.831 14.928L233.297 12.318ZM255.337 29.022C255.182 30.298 255.086 31.168 255.047 31.632L230.513 29.022H255.337ZM254.931 34.59C254.931 35.518 254.989 36.388 255.105 37.2L230.571 34.59H254.931ZM255.917 40.216C256.42 41.2987 257.038 42.1687 257.773 42.826L233.239 40.216H255.917ZM271.229 33.952C272.582 33.952 273.549 33.778 274.129 33.43C274.709 33.0433 275.115 32.1927 275.347 30.878L279.639 6.75H290.659L287.063 27.108C286.483 30.3947 285.806 33.0433 285.033 35.054C284.298 37.0647 283.254 38.766 281.901 40.158C280.548 41.55 278.866 42.5167 276.855 43.058C274.883 43.5993 272.37 43.87 269.315 43.87C264.636 43.87 261.35 43.174 259.455 41.782C257.599 40.3513 256.671 37.9153 256.671 34.474C256.671 32.5793 256.942 30.124 257.483 27.108L261.079 6.75H272.099L267.285 33.952H271.229Z" fill="black"/>
</g>
<defs>
<clipPath id="clip0">
<rect width="300" height="50" fill="white"/>
</clipPath>
</defs>
</svg>
