<svg width="524" height="72" viewBox="0 0 524 72" fill="none" xmlns="http://www.w3.org/2000/svg">
<g clip-path="url(#clip0)">
<path d="M71.495 68.685L-0.115002 63.96H72.335L71.495 68.685ZM73.28 58.5L28.76 53.775H74.12L73.28 58.5ZM84.515 18.18L39.995 13.455H84.83L84.515 18.18ZM85.25 8.1L40.835 3.375H85.565L85.25 8.1ZM47.555 33.615H92.915L88.925 38.025L47.555 33.615ZM38.42 43.695H83.78L79.79 48.105L38.42 43.695ZM56.585 23.535H101.945L97.955 27.945L56.585 23.535ZM128.51 69H74.75L77.06 55.875L108.665 20.805L108.455 20.175H87.56L88.715 3.375H139.64L137.33 16.5L105.935 51.57L106.04 52.2H131.45L128.51 69ZM158.965 69L170.515 3.375H190.465L178.915 69H158.965ZM155.815 68.685L111.295 63.96H156.655L155.815 68.685ZM159.385 48.42L114.865 43.695H160.225L159.385 48.42ZM161.17 38.34L116.65 33.615H162.01L161.17 38.34ZM162.955 28.26L118.435 23.535H163.795L162.955 28.26ZM164.74 18.18L120.22 13.455H165.475L164.74 18.18ZM157.6 58.5L113.08 53.775H158.44L157.6 58.5ZM166.42 8.1L122.005 3.375H167.26L166.42 8.1ZM202.95 68.685L131.34 63.96H203.79L202.95 68.685ZM204.735 58.5L160.215 53.775H205.575L204.735 58.5ZM215.97 18.18L171.45 13.455H216.285L215.97 18.18ZM216.705 8.1L172.29 3.375H217.02L216.705 8.1ZM179.01 33.615H224.37L220.38 38.025L179.01 33.615ZM169.875 43.695H215.235L211.245 48.105L169.875 43.695ZM188.04 23.535H233.4L229.41 27.945L188.04 23.535ZM259.965 69H206.205L208.515 55.875L240.12 20.805L239.91 20.175H219.015L220.17 3.375H271.095L268.785 16.5L237.39 51.57L237.495 52.2H262.905L259.965 69ZM318.875 52.62C321.605 52.62 323.635 52.305 324.965 51.675C326.295 50.975 327.17 49.435 327.59 47.055L332.42 19.755H324.02C321.36 19.755 319.365 20.105 318.035 20.805C316.705 21.435 315.83 22.94 315.41 25.32L310.58 52.62H318.875ZM327.485 1.8C336.375 1.8 342.71 3.55 346.49 7.05C350.27 10.48 352.16 15.8 352.16 23.01C352.16 30.22 351.005 37.78 348.695 45.69C346.455 53.53 342.85 59.655 337.88 64.065C332.98 68.405 325.77 70.575 316.25 70.575C306.8 70.575 300.185 68.86 296.405 65.43C292.625 61.93 290.735 56.575 290.735 49.365C290.735 45.935 291.225 41.42 292.205 35.82C293.185 30.15 294.48 25.285 296.09 21.225C297.7 17.095 299.87 13.525 302.6 10.515C307.85 4.705 316.145 1.8 327.485 1.8ZM289.16 35.715C289.02 36.275 288.88 37.045 288.74 38.025L247.475 33.615H289.475L289.16 35.715ZM288.005 43.695C287.795 45.305 287.69 46.775 287.69 48.105L246.32 43.695H288.005ZM291.995 23.535L290.735 27.84L249.995 23.535H291.995ZM287.795 53.775C288.075 55.735 288.32 57.205 288.53 58.185L247.685 53.775H287.795ZM296.3 13.455C295.32 15.275 294.62 16.675 294.2 17.655L254.93 13.455H296.3ZM290.945 63.96C291.855 65.57 292.905 66.865 294.095 67.845L257.765 63.96H290.945ZM306.275 3.375C304.245 4.635 302.67 5.79 301.55 6.84L269.42 3.375H306.275ZM401.66 42.435L401.765 40.44H400.925L395.99 69H376.04L387.59 3.375H407.54L402.815 30.15H403.655C404.215 27.91 404.845 26.23 405.545 25.11L418.775 3.375H440.3L419.72 35.61L429.275 69H407.75L401.975 45.48C401.765 44.78 401.66 43.765 401.66 42.435ZM372.89 68.685L328.37 63.96H373.73L372.89 68.685ZM376.46 48.42L331.94 43.695H377.3L376.46 48.42ZM378.245 38.34L333.725 33.615H379.085L378.245 38.34ZM380.03 28.26L335.51 23.535H380.87L380.03 28.26ZM381.815 18.18L337.295 13.455H382.55L381.815 18.18ZM374.675 58.5L330.155 53.775H375.515L374.675 58.5ZM383.495 8.1L339.08 3.375H384.335L383.495 8.1ZM460.616 28.26L416.096 23.535H461.456L460.616 28.26ZM458.831 38.34L414.416 33.615H459.671L458.831 38.34ZM464.186 8.1L419.771 3.375H465.026L464.186 8.1ZM417.986 13.455H463.241L462.401 18.18L417.986 13.455ZM457.886 43.695C457.606 46.005 457.431 47.58 457.361 48.42L412.946 43.695H457.886ZM457.151 53.775C457.151 55.455 457.256 57.03 457.466 58.5L413.051 53.775H457.151ZM458.936 63.96C459.846 65.92 460.966 67.495 462.296 68.685L417.881 63.96H458.936ZM486.656 52.62C489.106 52.62 490.856 52.305 491.906 51.675C492.956 50.975 493.691 49.435 494.111 47.055L501.881 3.375H521.831L515.321 40.23C514.271 46.18 513.046 50.975 511.646 54.615C510.316 58.255 508.426 61.335 505.976 63.855C503.526 66.375 500.481 68.125 496.841 69.105C493.271 70.085 488.721 70.575 483.191 70.575C474.721 70.575 468.771 69.315 465.341 66.795C461.981 64.205 460.301 59.795 460.301 53.565C460.301 50.135 460.791 45.69 461.771 40.23L468.281 3.375H488.231L479.516 52.62H486.656Z" fill="white"/>
</g>
<defs>
<clipPath id="clip0">
<rect width="524" height="72" fill="white"/>
</clipPath>
</defs>
</svg>
